# xmcd
#
# Track frame offsets:
#	150
#	18711
#	42001
#	64506
#	83726
#	103114
#	124040
#	142455
#	163650
#	184850
#	208425
#	230078
#	252274
#	273309
#	296340
#	313771
#	331696
#
# Disc length: 4734 seconds
#
# Revision: 1
# Processed by: cddbd v1.5.2PL0 Copyright (c) Steve Scherf et al.
# Submitted via: audiograbber 1.83.01
#
DISCID=01127c11
DTITLE=Various Artist - X-Mix Chartbusters 63 (Nov 2010)
DYEAR=2010
DGENRE=
TTITLE0=Edward Maya - Stereo Love (X Mix Edit)   (127 BPM)
TTITLE1=Shontelle - Perfect Nightmare (X Mix Edit)   (127 BPM)
TTITLE2=Katy Perry - Firework (X Mix Edit)   (124 BPM)
TTITLE3=Pink - Raise Your Glass (X Mix Edit)   (122 BPM)
TTITLE4=Ke$ha - We R Who We R (X Mix Edit)   (120 BPM)
TTITLE5=3OH!3 feat. Wiz Khalifa - Double Vision (X Mix Edit)   (120 BPM)
TTITLE6=Shakira feat. El cala - Loca (Spanish Version)  (X Mix Edit)   (112 BPM
TTITLE6=)
TTITLE7=Zac Brown Band - As Shes Walking Away (X Mix Edit)   (92 BPM)
TTITLE8=The Ready Set - Love Like Woe (X Mix Edit)   (90 BPM)
TTITLE9=Alexis Y Fido feat. Daddy Yankee - Rescate (X Mix Edit)   (90 BPM)
TTITLE10=Jason Aldean - My Kinda Party (X Mix Edit)   (89 BPM)
TTITLE11=Darius - Come Back Song (X Mix Edit)   (89 BPM)
TTITLE12=Sick Puppies - Maybe (X Mix Edit)   (84 BPM)
TTITLE13=My Darkest Day feat. Ludacris - Porn Star Dancing (X Mix Edit)   (80 B
TTITLE13=PM)
TTITLE14=Jesse McCartney - Shake (X Mix Edit)   (75 BPM)
TTITLE15=Daughtry - September (X Mix Edit)   (75 BPM)
TTITLE16=Trey Songz feat. Nicki Minja - Bottoms Up (X Mix Edit)   (74 BPM)
EXTD=
EXTT0=
EXTT1=
EXTT2=
EXTT3=
EXTT4=
EXTT5=
EXTT6=
EXTT7=
EXTT8=
EXTT9=
EXTT10=
EXTT11=
EXTT12=
EXTT13=
EXTT14=
EXTT15=
EXTT16=
PLAYORDER=
